<?xml version="1.0" encoding="utf-8"?>
<!-- Generator: Adobe Illustrator 25.0.1, SVG Export Plug-In . SVG Version: 6.00 Build 0)  -->
<svg version="1.1" id="Calque_1" xmlns="http://www.w3.org/2000/svg" xmlns:xlink="http://www.w3.org/1999/xlink" x="0px" y="0px"
	 viewBox="0 0 553.54 388.61" style="enable-background:new 0 0 553.54 388.61;" xml:space="preserve">
<style type="text/css">
	.st0{display:none;}
	.st1{display:inline;fill:none;stroke:#000000;stroke-width:5;stroke-miterlimit:10;}
	.st2{display:none;fill:#36A9E1;stroke:#000000;stroke-miterlimit:10;}
	.st3{fill:#212951;}
	.st4{fill:#EAB30B;}
</style>
<g id="Calque_2_1_" class="st0">
	<polygon class="st1" points="89.59,36.47 -5.86,133.44 272.93,453.14 548.68,130.41 451.71,36.47 	"/>
</g>
<polygon class="st2" points="282.26,486.86 550.44,173 3.47,167.17 "/>
<rect class="st3" width="553.54" height="388.61"/>
<g>
	<path class="st4" d="M60.39,288.32V100.29h74.55l40.02,119.22h1.1l39.74-119.22h74.82v188.02h-45.5V153.46h-1.37l-44.67,134.85
		h-51.53l-44.4-134.85h-1.37v134.85H60.39z"/>
	<path class="st4" d="M329.53,288.32V100.29h46.04v84.69l66.05-84.69h49.06l-61.12,77.01l63.58,111h-51.53l-42.21-75.64
		l-23.84,28.23v47.42H329.53z"/>
</g>
</svg>
